# xmcd
#
# Track frame offsets:
#	150
#	9437
#	21342
#	38602
#	51760
#	66500
#	78380
#	92462
#	105887
#	122107
#	133887
#	148070
#	160342
#	170100
#	183812
#	200650
#	210587
#	224325
#	236687
#	250915
#
# Disc length: 3541 seconds
# Revision: 3
# Processed by: cddbd v1.5.2PL0 Copyright (c) Steve Scherf et al.
# Submitted via: dBpowerAMP V12.0
#
DISCID=1d0dd314
DTITLE=Various Artist - The Sound Of Branson Missouri, Disc 1
DYEAR=1997
DGENRE=Country
TTITLE0=Charlie Pride - Kiss An Angel Good Mornin'
TTITLE1=Roy Clark - If I Had It To Do All Over Again
TTITLE2=Ray Price - For The Good Times
TTITLE3=Larry Gatlin and The Gatlin Brothers Band - Houston (Means I'm One Day Closer To You)
TTITLE4=Cristy Lane - One Day At A Time
TTITLE5=Moe Bandy - It's A Cheatin' Situation
TTITLE6=Jim Stafford - Spiders And Snakes
TTITLE7=Faron Young - It's Four In The Morning
TTITLE8=Mickey Gilley - Stand By Me
TTITLE9=Johnny Paycheck - Take This Job And Shove It
TTITLE10=Glen Campbell - Country Boy (You've Got Your Feet In L. A.)
TTITLE11=Crystal Gayle - Don't It Make My Brown Eyes Blue
TTITLE12=Mel Tillis And The Statesiders - I Ain't Never
TTITLE13=The Gatlin Brothers - Night Time  Magic
TTITLE14=Janie Fricke - It Ain't Easy Bein' Easy
TTITLE15=Buck Trent - Snowbird
TTITLE16=Loretta Lynn - Somebody Somewhere (Don't Know What He's Missin' Tonight)
TTITLE17=Larry Gatlin and The Gatlin Brothers - Broken Lady
TTITLE18=Boxcar Willie - Boxcar Blues
TTITLE19=Ray Stevens - The Streak
EXTD=
EXTT0=
EXTT1=
EXTT2=
EXTT3=
EXTT4=
EXTT5=
EXTT6=
EXTT7=
EXTT8=
EXTT9=
EXTT10=
EXTT11=
EXTT12=
EXTT13=
EXTT14=
EXTT15=
EXTT16=
EXTT17=
EXTT18=
EXTT19=
PLAYORDER=
